<?xml version="1.0" encoding="utf-8"?>
<svg viewBox="447.821 -214.701 1690.146 1132.084" width="1635.055px" height="1286.682px" fill="none" xmlns="http://www.w3.org/2000/svg">
  <path d="M 816.925 566.655 L 731.174 416.054 L 648.349 566.655 L 513.43 566.655 L 668.251 336.496 L 522.503 108.981 L 662.982 108.981 L 741.709 254.59 L 820.437 108.981 L 948.917 108.981 L 803.169 332.973 L 958.868 566.655 L 816.925 566.655 L 816.925 566.655 Z" stroke="#F5F3F3" stroke-width="2" style="opacity: 0.7;"/>
  <path d="M 796.312 607.317 L 735.144 500.165 L 676.318 607.317 L 438.966 607.317 L 622.175 334.885 L 449.794 66.27 L 690.952 66.27 L 745.095 166.377 L 799.238 66.27 L 1028.98 66.27 L 856.308 331.657 L 1039.81 607.317 L 796.312 607.317 Z" stroke="#F5F3F3" stroke-width="2" style="opacity: 0.7;"/>
  <path d="M 772.287 659.688 L 735.704 595.69 L 700.584 659.688 L 360.799 659.688 L 572.396 344.982 L 373.969 35.267 L 715.51 35.267 L 745.069 89.871 L 774.628 35.267 L 1105.633 35.267 L 906.035 342.047 L 1117.34 659.688 L 772.287 659.688 Z" stroke="#F5F3F3" stroke-width="2" style="opacity: 0.7;"/>
  <path d="M 750.054 699.604 L 738.347 679.054 L 726.933 699.604 L 284.423 699.604 L 524.409 342.917 L 299.641 -7.604 L 742.153 -7.604 L 746.834 1.203 L 751.517 -7.604 L 1184.078 -7.604 L 957.554 340.275 L 1196.662 699.604 L 750.054 699.604 Z" stroke="#F5F3F3" stroke-width="2" style="opacity: 0.7;"/>
  <path d="M 206.722 742.768 L 475.097 343.808 L 223.697 -47.813 L 1260.904 -47.813 L 1007.456 341.753 L 1274.363 742.768 L 206.722 742.768 Z" stroke="#F5F3F3" stroke-width="2" style="opacity: 0.7;"/>
  <path d="M 136.094 785.358 L 432.857 344.124 L 155.409 -88.598 L 1345.099 -88.598 L 1064.43 342.362 L 1359.437 785.358 L 136.094 785.358 Z" stroke="#F5F3F3" stroke-width="2" style="opacity: 0.7;"/>
  <path d="M -15.284 871.377 L 337.964 346.183 L 7.836 -168.738 L 1503.065 -168.738 L 1168.552 344.715 L 1519.16 871.377 L -15.284 871.377 Z" stroke="#F5F3F3" stroke-width="2" style="opacity: 0.7;"/>
  <path d="M 63.516 828.003 L 388.375 344.788 L 84.588 -129.326 L 1427.041 -129.326 L 1119.456 343.026 L 1442.268 828.003 L 63.516 828.003 Z" stroke="#F5F3F3" stroke-width="2" style="opacity: 0.7;"/>
  <path d="M -89.057 914.085 L 292.873 346.617 L -63.595 -209.403 L 1584.115 -209.403 L 1222.674 345.442 L 1601.089 914.085 L -89.057 914.085 Z" stroke="#F5F3F3" stroke-width="2" style="opacity: 0.7;"/>
</svg>