<svg id="Layer_1" data-name="Layer 1" xmlns="http://www.w3.org/2000/svg" viewBox="0 0 290.13 97.37"><defs><style>.cls-1{isolation:isolate;}.cls-2{fill:#fff;}.cls-3{fill:#0054a6;}.cls-4{fill:#ce2027;}</style></defs><g class="cls-1"><path class="cls-2" d="M168.83,156.81v2H164v5h6.54v2h-8.65V151h8.44v2H164v3.8Z" transform="translate(-74.59 -73.48)"/><path class="cls-2" d="M176.75,162.07l-2.68,3.71h-2.39l3.76-5.21-3.4-4.71h2.37l2.34,3.21,2.34-3.21h2.37l-3.4,4.71,3.76,5.21h-2.39Z" transform="translate(-74.59 -73.48)"/><path class="cls-2" d="M185.93,170.85h-2v-15h1.94v.91a4.24,4.24,0,0,1,1.47-.86,5.25,5.25,0,0,1,1.63-.26,5,5,0,0,1,1.31.17,4.87,4.87,0,0,1,1.12.46,5.23,5.23,0,0,1,1.85,1.86,5.5,5.5,0,0,1,0,5.35,5.26,5.26,0,0,1-1.84,1.85,4.69,4.69,0,0,1-1.16.47,5,5,0,0,1-1.33.18,4.41,4.41,0,0,1-3-1.07Zm0-8.17a3.44,3.44,0,0,0,1.24,1,3.19,3.19,0,0,0,1.49.37,3.24,3.24,0,0,0,1.32-.26,3.43,3.43,0,0,0,1-.71,3.33,3.33,0,0,0,.69-1,3.38,3.38,0,0,0,.24-1.27,3.45,3.45,0,0,0-.23-1.24,3.32,3.32,0,0,0-.65-1.05,3.05,3.05,0,0,0-1-.72,3.48,3.48,0,0,0-2.94.14,3.85,3.85,0,0,0-1.2,1Z" transform="translate(-74.59 -73.48)"/><path class="cls-2" d="M195.85,160.82a5.2,5.2,0,0,1,.4-2,5,5,0,0,1,1.07-1.64A4.81,4.81,0,0,1,199,156a5.5,5.5,0,0,1,4.07,0,4.81,4.81,0,0,1,1.63,1.09,5.12,5.12,0,0,1,1.07,1.64,5.38,5.38,0,0,1,.39,2,5.32,5.32,0,0,1-.39,2.06,5.23,5.23,0,0,1-1.07,1.64A4.94,4.94,0,0,1,203,165.6a5.5,5.5,0,0,1-4.07,0,4.94,4.94,0,0,1-1.63-1.08,5.06,5.06,0,0,1-1.07-1.64A5.15,5.15,0,0,1,195.85,160.82Zm2,0a3.63,3.63,0,0,0,.23,1.28,3.16,3.16,0,0,0,.65,1,2.88,2.88,0,0,0,1,.7,3.33,3.33,0,0,0,2.53,0,2.88,2.88,0,0,0,1-.7,3.16,3.16,0,0,0,.65-1,3.63,3.63,0,0,0,.23-1.28,3.67,3.67,0,0,0-.23-1.28,3.16,3.16,0,0,0-.65-1,2.88,2.88,0,0,0-1-.7,3.33,3.33,0,0,0-2.53,0,2.88,2.88,0,0,0-1,.7,3.16,3.16,0,0,0-.65,1A3.67,3.67,0,0,0,197.86,160.82Z" transform="translate(-74.59 -73.48)"/><path class="cls-2" d="M210.8,156.81A5.3,5.3,0,0,1,212,156a3.93,3.93,0,0,1,1.83-.39,4.49,4.49,0,0,1,2,.47,4.82,4.82,0,0,1,1.58,1.28,4.39,4.39,0,0,1,.73,1.43,7.58,7.58,0,0,1,.24,2.1v4.85h-2v-5a5,5,0,0,0-.16-1.46,2.56,2.56,0,0,0-.43-.84,2.76,2.76,0,0,0-.9-.71,2.65,2.65,0,0,0-1.15-.26,3.21,3.21,0,0,0-1.7.43,4.68,4.68,0,0,0-1.15,1v6.82h-2v-9.92h1.94Z" transform="translate(-74.59 -73.48)"/><path class="cls-2" d="M222.83,161.24a3.08,3.08,0,0,0,.31,1.18,3.52,3.52,0,0,0,.68,1,3.35,3.35,0,0,0,1,.64,3.31,3.31,0,0,0,1.22.23,3.16,3.16,0,0,0,1.76-.43,5.12,5.12,0,0,0,1.09-.92l1.31,1.25a5.09,5.09,0,0,1-1.6,1.28A5.4,5.4,0,0,1,226,166a5.22,5.22,0,0,1-3.65-1.46,4.86,4.86,0,0,1-1.09-1.64,5.37,5.37,0,0,1-.39-2.07,5.81,5.81,0,0,1,.36-2.07,4.81,4.81,0,0,1,1-1.63,4.62,4.62,0,0,1,1.53-1.08,4.78,4.78,0,0,1,1.95-.39,4.69,4.69,0,0,1,1.91.39,4.53,4.53,0,0,1,1.51,1.09,5.1,5.1,0,0,1,1,1.64,5.78,5.78,0,0,1,.36,2V161a1.29,1.29,0,0,1,0,.25Zm3-3.84A2.84,2.84,0,0,0,224,158a2.79,2.79,0,0,0-1,1.56h5.41a3.11,3.11,0,0,0-.37-.86,2.94,2.94,0,0,0-.62-.69,2.8,2.8,0,0,0-.77-.44A2.34,2.34,0,0,0,225.79,157.4Z" transform="translate(-74.59 -73.48)"/></g><g class="cls-1"><path class="cls-2" d="M235.18,156.81a5.06,5.06,0,0,1,1.15-.77,3.91,3.91,0,0,1,1.82-.39,4.53,4.53,0,0,1,2,.47,4.68,4.68,0,0,1,1.57,1.28,4,4,0,0,1,.73,1.43,7.58,7.58,0,0,1,.24,2.1v4.85h-2v-5a5,5,0,0,0-.16-1.46,2.45,2.45,0,0,0-1.33-1.55,2.65,2.65,0,0,0-1.15-.26,3.18,3.18,0,0,0-1.7.43,4.68,4.68,0,0,0-1.15,1v6.82h-2v-9.92h1.94Z" transform="translate(-74.59 -73.48)"/></g><g class="cls-1"><path class="cls-2" d="M251.74,165.89l-.56.07-.6,0a4,4,0,0,1-1.63-.3,3.49,3.49,0,0,1-1.18-.86,2.77,2.77,0,0,1-.62-1.16,5.72,5.72,0,0,1-.18-1.48v-4.54h-2.11v-1.79H247V152.1h2v3.76h2.74v1.79H249v4.65a5.08,5.08,0,0,0,.05.72,1.3,1.3,0,0,0,.24.55,1.49,1.49,0,0,0,.6.39,2.27,2.27,0,0,0,.77.13,5.28,5.28,0,0,0,.59,0l.51-.07Z" transform="translate(-74.59 -73.48)"/><path class="cls-2" d="M254.7,152.19a1.18,1.18,0,0,1,1.18-1.18,1.16,1.16,0,0,1,1.18,1.18,1.13,1.13,0,0,1-.34.83,1.16,1.16,0,0,1-.84.35,1.14,1.14,0,0,1-.83-.35A1.1,1.1,0,0,1,254.7,152.19Zm.19,3.67h2v9.92h-2Z" transform="translate(-74.59 -73.48)"/><path class="cls-2" d="M267.72,164.88a4.25,4.25,0,0,1-1.39.83,4.84,4.84,0,0,1-1.67.28,5,5,0,0,1-1.33-.18,4.85,4.85,0,0,1-1.16-.47,5.15,5.15,0,0,1-1.83-1.85,5.43,5.43,0,0,1,0-5.35,5.21,5.21,0,0,1,1.84-1.86,4.87,4.87,0,0,1,1.12-.46,5.05,5.05,0,0,1,1.31-.17,5.36,5.36,0,0,1,1.64.26,4.2,4.2,0,0,1,1.46.86v-.91h1.95v9.92h-1.95Zm-.06-5.92a3.92,3.92,0,0,0-1.19-1,3.5,3.5,0,0,0-3-.14,3.16,3.16,0,0,0-1,.72,3.29,3.29,0,0,0-.64,1.05,3.25,3.25,0,0,0-.23,1.24,3.38,3.38,0,0,0,.24,1.27,3.13,3.13,0,0,0,.68,1,3.47,3.47,0,0,0,1.05.71,3.18,3.18,0,0,0,1.32.26,3.25,3.25,0,0,0,1.49-.37,3.5,3.5,0,0,0,1.23-1Z" transform="translate(-74.59 -73.48)"/><path class="cls-2" d="M273.26,150.79h2v15h-2Z" transform="translate(-74.59 -73.48)"/><path class="cls-2" d="M278.85,150.79h2v15h-2Z" transform="translate(-74.59 -73.48)"/></g><g class="cls-1"><path class="cls-2" d="M284.42,170.85l2.68-6.1-4.24-8.89H285l3.11,6.55,2.85-6.55h2.11l-6.53,15Z" transform="translate(-74.59 -73.48)"/></g><g class="cls-1"><path class="cls-2" d="M302.62,165.78h-1.94v-15h2v5.94a4.71,4.71,0,0,1,1.46-.82,5.08,5.08,0,0,1,1.58-.26,5,5,0,0,1,1.31.17,4.87,4.87,0,0,1,1.12.46,5.23,5.23,0,0,1,1.85,1.86,5.5,5.5,0,0,1,0,5.35,5.26,5.26,0,0,1-1.84,1.85,4.69,4.69,0,0,1-1.16.47,5,5,0,0,1-1.33.18,4.43,4.43,0,0,1-3.06-1.11Zm.06-3.1a3.44,3.44,0,0,0,1.24,1,3.19,3.19,0,0,0,1.49.37,3.24,3.24,0,0,0,1.32-.26,3.31,3.31,0,0,0,1-.71,3.16,3.16,0,0,0,.69-1,3.38,3.38,0,0,0,.24-1.27,3.45,3.45,0,0,0-.23-1.24,3.32,3.32,0,0,0-.65-1.05,3.05,3.05,0,0,0-1-.72,3.48,3.48,0,0,0-2.94.14,3.85,3.85,0,0,0-1.2,1Z" transform="translate(-74.59 -73.48)"/><path class="cls-2" d="M314.55,161.24a3.26,3.26,0,0,0,.3,1.18,3.79,3.79,0,0,0,.69,1,3.19,3.19,0,0,0,1,.64,3.32,3.32,0,0,0,1.23.23,3.16,3.16,0,0,0,1.76-.43,5.38,5.38,0,0,0,1.09-.92l1.31,1.25a5.14,5.14,0,0,1-1.61,1.28,5.35,5.35,0,0,1-2.58.57,5.22,5.22,0,0,1-3.65-1.46,5,5,0,0,1-1.08-1.64,5.37,5.37,0,0,1-.39-2.07,5.81,5.81,0,0,1,.35-2.07,4.83,4.83,0,0,1,1-1.63A4.62,4.62,0,0,1,315.5,156a4.77,4.77,0,0,1,1.94-.39,4.63,4.63,0,0,1,1.91.39,4.43,4.43,0,0,1,1.51,1.09,5.1,5.1,0,0,1,1,1.64,5.78,5.78,0,0,1,.36,2V161c0,.07,0,.15,0,.25Zm2.95-3.84a2.84,2.84,0,0,0-1.75.59,2.77,2.77,0,0,0-1,1.56h5.4a2.61,2.61,0,0,0-.37-.86,2.9,2.9,0,0,0-.61-.69,2.8,2.8,0,0,0-.77-.44A2.35,2.35,0,0,0,317.5,157.4Z" transform="translate(-74.59 -73.48)"/></g><g class="cls-1"><path class="cls-2" d="M330.67,165.89l-.55.07-.61,0a4.05,4.05,0,0,1-1.63-.3,3.36,3.36,0,0,1-1.17-.86,2.68,2.68,0,0,1-.63-1.16,5.73,5.73,0,0,1-.17-1.48v-4.54h-2.12v-1.79h2.12V152.1h2v3.76h2.74v1.79h-2.74v4.65a5.08,5.08,0,0,0,0,.72,1.3,1.3,0,0,0,.24.55,1.56,1.56,0,0,0,.6.39,2.28,2.28,0,0,0,.78.13,5.22,5.22,0,0,0,.58,0l.51-.07Z" transform="translate(-74.59 -73.48)"/></g><g class="cls-1"><path class="cls-2" d="M339.74,165.89l-.56.07-.6,0a4,4,0,0,1-1.63-.3,3.36,3.36,0,0,1-1.17-.86,2.68,2.68,0,0,1-.63-1.16,5.72,5.72,0,0,1-.18-1.48v-4.54h-2.11v-1.79H335V152.1h2v3.76h2.74v1.79H337v4.65a3.94,3.94,0,0,0,0,.72,1.3,1.3,0,0,0,.24.55,1.52,1.52,0,0,0,.59.39,2.38,2.38,0,0,0,.79.13,5.22,5.22,0,0,0,.58,0l.51-.07Z" transform="translate(-74.59 -73.48)"/></g><g class="cls-1"><path class="cls-2" d="M343.66,161.24a3.08,3.08,0,0,0,.31,1.18,3.79,3.79,0,0,0,.69,1,3.19,3.19,0,0,0,1,.64,3.31,3.31,0,0,0,1.22.23,3.22,3.22,0,0,0,1.77-.43,5.31,5.31,0,0,0,1.08-.92l1.31,1.25a5,5,0,0,1-1.6,1.28,5.38,5.38,0,0,1-2.58.57,5.22,5.22,0,0,1-3.65-1.46,5,5,0,0,1-1.09-1.64,5.37,5.37,0,0,1-.39-2.07,5.81,5.81,0,0,1,.36-2.07,4.83,4.83,0,0,1,1-1.63,4.48,4.48,0,0,1,1.52-1.08,4.82,4.82,0,0,1,1.95-.39,4.66,4.66,0,0,1,1.91.39,4.53,4.53,0,0,1,1.51,1.09,5.1,5.1,0,0,1,1,1.64,5.78,5.78,0,0,1,.36,2V161c0,.07,0,.15,0,.25Zm3-3.84a2.88,2.88,0,0,0-2.79,2.15h5.41a2.84,2.84,0,0,0-.37-.86,3.14,3.14,0,0,0-.61-.69,2.8,2.8,0,0,0-.77-.44A2.39,2.39,0,0,0,346.62,157.4Z" transform="translate(-74.59 -73.48)"/></g><g class="cls-1"><path class="cls-2" d="M359.55,157.63a3.4,3.4,0,0,0-.78-.08,2.78,2.78,0,0,0-1.52.48,3.47,3.47,0,0,0-1.16,1.19v6.56h-2v-9.92H356V157a3.25,3.25,0,0,1,1.12-.93,3.79,3.79,0,0,1,1.86-.42,2.7,2.7,0,0,1,.54,0Z" transform="translate(-74.59 -73.48)"/></g><g class="cls-1"><path class="cls-2" d="M362,164.64a1.33,1.33,0,1,1,.39,1A1.3,1.3,0,0,1,362,164.64Z" transform="translate(-74.59 -73.48)"/></g><g id="Ten-X-Logo"><path id="Ten-X" class="cls-2" d="M186.91,132.3v-2a22,22,0,0,1-2.39-.22,5.4,5.4,0,0,1-1.78-.57,2.59,2.59,0,0,1-1.12-1.15,4.11,4.11,0,0,1-.39-1.93h0V97.6H186a10.54,10.54,0,0,1,3.2.4,5.56,5.56,0,0,1,2.14,1.29,9.09,9.09,0,0,1,1.67,2.36c.51,1,1.1,2.19,1.77,3.62h1.76l-.81-10.15H161.55l-.81,10.15h1.76c.67-1.43,1.25-2.63,1.76-3.62a9.34,9.34,0,0,1,1.67-2.36A5.6,5.6,0,0,1,168.08,98a10.47,10.47,0,0,1,3.19-.4H176v28.79a4.24,4.24,0,0,1-.38,1.93,2.7,2.7,0,0,1-1.12,1.15,5.46,5.46,0,0,1-1.79.57,21.78,21.78,0,0,1-2.38.22h0v2Zm18.53.48a13.67,13.67,0,0,0,4.41-.64,11.54,11.54,0,0,0,3.24-1.69,9.53,9.53,0,0,0,2.19-2.36,10.48,10.48,0,0,0,1.22-2.6h0l-1.39-.62a11.15,11.15,0,0,1-3.19,2.62,10,10,0,0,1-5,1.14q-4.71,0-6.93-2.86a12.33,12.33,0,0,1-2.22-7.77h18.69v-1.33a11.68,11.68,0,0,0-.67-4,8.59,8.59,0,0,0-2-3.21,9.26,9.26,0,0,0-3.31-2.13,13,13,0,0,0-4.61-.76,12.82,12.82,0,0,0-5.05,1,11.45,11.45,0,0,0-4,2.84,13.18,13.18,0,0,0-2.62,4.39,16,16,0,0,0-1,5.69,13.64,13.64,0,0,0,.84,4.82,11.44,11.44,0,0,0,2.4,3.91,11.24,11.24,0,0,0,3.84,2.62A13.21,13.21,0,0,0,205.44,132.78Zm5.76-17.16H197.9a7.34,7.34,0,0,1,2.15-4.41,6.38,6.38,0,0,1,4.62-1.69,7.93,7.93,0,0,1,2.84.47,5.94,5.94,0,0,1,2.05,1.32,5.12,5.12,0,0,1,1.24,2,6.88,6.88,0,0,1,.4,2.36ZM227,106.56l-.24,4.67.33-.34a19.49,19.49,0,0,1,1.55-1.35A16.39,16.39,0,0,1,231,108a13.78,13.78,0,0,1,2.64-1.07,10,10,0,0,1,2.82-.41,11.49,11.49,0,0,1,3.21.43,6.47,6.47,0,0,1,2.51,1.38,6.6,6.6,0,0,1,1.64,2.43,9.54,9.54,0,0,1,.6,3.58h0V128a2.6,2.6,0,0,0,.28,1.09,1.93,1.93,0,0,0,.79.76,4.47,4.47,0,0,0,1.22.41c.47.09,1,.17,1.52.24h0v1.85H235.79v-1.85l.4,0,1.12-.19a4.59,4.59,0,0,0,1.22-.41,1.9,1.9,0,0,0,.78-.76,2.52,2.52,0,0,0,.29-1.31h0v-13a4.1,4.1,0,0,0-1.31-3.36,6.09,6.09,0,0,0-3.69-1,11.42,11.42,0,0,0-4.15.86,13.8,13.8,0,0,0-3.72,2.1h0V128A2.33,2.33,0,0,0,227,129a1.9,1.9,0,0,0,.78.76,4.59,4.59,0,0,0,1.22.41c.47.09,1,.17,1.52.24h0v1.85H218.15v-1.85l.4,0c.39-.06.77-.12,1.12-.19a4.47,4.47,0,0,0,1.22-.41,1.93,1.93,0,0,0,.79-.76,2.63,2.63,0,0,0,.28-1.31h0v-16l-3.57-1.67V109l6.91-2.39Zm29,4.91a.51.51,0,0,1,.52.16h0l5.81,7.49c.11.15.05.27-.13.27h-9.33a.52.52,0,0,1-.45-.32h0l-1.93-5.4a.35.35,0,0,1,.21-.44h0Zm16.49,20.83v-2c-.95,0-1.73,0-2.33-.1a5,5,0,0,1-1.41-.31,1.27,1.27,0,0,1-.67-.55,1.7,1.7,0,0,1-.16-.76,2.2,2.2,0,0,1,.43-1.38c.28-.38.63-.83,1-1.34h0l8.73-10.34,8.34,10.34c.41.51.76,1,1.05,1.34a2.2,2.2,0,0,1,.43,1.38,2,2,0,0,1-.14.76,1.14,1.14,0,0,1-.65.55,5.13,5.13,0,0,1-1.45.31c-.64.06-1.51.1-2.62.1h0v2H299.3v-2a5.81,5.81,0,0,1-2.67-.55,8.31,8.31,0,0,1-2.33-2.12h0l-12.4-15.4,10.39-12.35a8.88,8.88,0,0,1,2.36-2.12,5.57,5.57,0,0,1,2.65-.55h0v-2H283.76v2a25.5,25.5,0,0,1,2.62.1,4.87,4.87,0,0,1,1.46.31,1.11,1.11,0,0,1,.64.54,1.89,1.89,0,0,1,.14.77,2.2,2.2,0,0,1-.43,1.38c-.28.38-.63.83-1,1.33h0l-7,8.39-6.72-8.39c-.42-.5-.77-.95-1.05-1.33a2.2,2.2,0,0,1-.43-1.38,2.07,2.07,0,0,1,.14-.77,1.14,1.14,0,0,1,.64-.54,5,5,0,0,1,1.48-.31,25.72,25.72,0,0,1,2.6-.1h0v-2H260.5v2a5.64,5.64,0,0,1,2.69.55,8.38,8.38,0,0,1,2.31,2.12h0l10.78,13.44-12.06,14.31a8.77,8.77,0,0,1-2.48,2.09,6.29,6.29,0,0,1-2.82.58h0v2Z" transform="translate(-74.59 -73.48)"/></g><path class="cls-3" d="M82.47,130.65l-7.83-24.14a1.42,1.42,0,0,1,.43-1.43l12-9.41a.92.92,0,0,1,1.29.18l8.89,12.27a1.43,1.43,0,0,1,0,1.49l-14,21.15C83,131.18,82.64,131.13,82.47,130.65Z" transform="translate(-74.59 -73.48)"/><path class="cls-4" d="M122.06,145.15l-15.8-19.81a1.4,1.4,0,0,0-1.43-.43l-14.42,4.66a.91.91,0,0,0-.56,1.17L95.09,145a1.41,1.41,0,0,0,1.23.85H121.7C122.21,145.88,122.37,145.55,122.06,145.15Z" transform="translate(-74.59 -73.48)"/><path class="cls-4" d="M147.73,112.71,124,121.62a1.39,1.39,0,0,0-.85,1.22l0,15.15a.92.92,0,0,0,.94.9l15.21-.57a1.38,1.38,0,0,0,1.18-.9l7.86-24.14C148.47,112.79,148.2,112.54,147.73,112.71Z" transform="translate(-74.59 -73.48)"/><path class="cls-4" d="M124.81,78.28,126,103.59a1.4,1.4,0,0,0,.89,1.19l14.41,4.7a.92.92,0,0,0,1.15-.61l4.15-14.65a1.37,1.37,0,0,0-.49-1.4L125.53,77.89C125.12,77.6,124.8,77.77,124.81,78.28Z" transform="translate(-74.59 -73.48)"/><path class="cls-3" d="M85,89.43l24.43,6.74a1.41,1.41,0,0,0,1.41-.48l8.93-12.25a.93.93,0,0,0-.24-1.28l-12.64-8.48a1.41,1.41,0,0,0-1.49,0L84.83,88.62C84.42,88.92,84.49,89.29,85,89.43Z" transform="translate(-74.59 -73.48)"/><polygon class="cls-2" points="227.21 21.63 227.21 22.39 229.36 22.39 229.36 28.01 230.23 28.01 230.23 22.39 232.38 22.39 232.38 21.63 227.21 21.63"/><path class="cls-2" d="M307.74,101.49h.83V97.73c0-.16,0-.39,0-.71s0-.56,0-.72v-.19l1.84,5.38h.86l1.82-5.38c0,.34,0,.67,0,1s0,.52,0,.65v3.76h.83V95.11h-1.23l-1.82,5.39L309,95.11h-1.24Z" transform="translate(-74.59 -73.48)"/></svg>