<svg width="40" height="40" viewBox="0 0 40 40" fill="none" xmlns="http://www.w3.org/2000/svg">
<path d="M34.9844 0H4.99995C2.23856 0 0.000873295 2.23856 0.00195056 4.99996L0.013654 35.0001C0.0147313 37.7614 2.25416 40 5.01556 40H35.0001C37.7615 40 39.9991 37.7614 39.9981 35L39.9864 4.99995C39.9853 2.23855 37.7458 0 34.9844 0Z" fill="#CE2028"/>
<path d="M30.5325 11.1666H10.1238C10.0092 11.1666 9.91553 11.2604 9.91553 11.375V13.0416C9.91553 13.1562 10.0092 13.25 10.1238 13.25H30.5325C30.647 13.25 30.7407 13.1562 30.7407 13.0416V11.375C30.7407 11.2604 30.647 11.1666 30.5325 11.1666ZM30.5325 27.4166H10.1238C10.0092 27.4166 9.91553 27.5104 9.91553 27.625V29.2916C9.91553 29.4062 10.0092 29.5 10.1238 29.5H30.5325C30.647 29.5 30.7407 29.4062 30.7407 29.2916V27.625C30.7407 27.5104 30.647 27.4166 30.5325 27.4166ZM30.5325 19.2916H10.1238C10.0092 19.2916 9.91553 19.3854 9.91553 19.5V21.1666C9.91553 21.2812 10.0092 21.375 10.1238 21.375H30.5325C30.647 21.375 30.7407 21.2812 30.7407 21.1666V19.5C30.7407 19.3854 30.647 19.2916 30.5325 19.2916Z" fill="white"/>
</svg>
