<svg width="1745" height="1344" viewBox="0 0 1745 1344" fill="none" xmlns="http://www.w3.org/2000/svg">
<g opacity="0.25">
<path d="M1 1343.07L678.312 290.919L46.1541 -740H2968.2L2327.22 288.741L2998.3 1343.07H1Z" stroke="white" stroke-opacity="0.8"/>
<path d="M139.576 1265.77L766.025 292.007L180.578 -662.708H2832.22L2238.98 289.286L2860.76 1265.77H139.576Z" stroke="white" stroke-opacity="0.8"/>
<path d="M278.153 1189.03L854.258 293.096L315.522 -585.961H2696.23L2150.75 289.83L2723.22 1189.03H278.153Z" stroke="white" stroke-opacity="0.8"/>
<path d="M416.21 1111.73L942.49 293.64L450.465 -508.669H2560.25L2062.52 290.374L2585.68 1111.73H416.21Z" stroke="white" stroke-opacity="0.8"/>
<path d="M554.787 1034.44L1030.72 294.729L584.889 -431.377H2424.27L1974.81 290.919L2448.15 1034.44H554.787Z" stroke="white" stroke-opacity="0.8"/>
<path d="M1518.59 957.151L1497.83 919.049L1477.59 957.151H692.845L1118.44 295.817L719.833 -354.086H1504.58L1512.89 -337.757L1521.19 -354.086H2288.29L1886.57 290.918L2310.61 957.151H1518.59Z" stroke="white" stroke-opacity="0.8"/>
<path d="M1561.15 880.404L1496.28 761.745L1433.99 880.404H831.421L1206.67 296.906L854.776 -277.338H1460.46L1512.88 -176.097L1565.31 -277.338H2152.31L1798.34 291.463L2173.07 880.404H1561.15Z" stroke="white" stroke-opacity="0.8"/>
<path d="M1603.71 803.112L1495.24 604.44L1390.92 803.112H969.998L1294.9 297.995L989.201 -200.047H1416.87L1512.89 -14.4379L1608.9 -200.047H2016.33L1710.11 292.007L2035.53 803.112H1603.71Z" stroke="white" stroke-opacity="0.8"/>
<path d="M1646.27 725.82L1494.2 446.59L1347.32 725.82H1108.05L1382.61 299.083L1124.14 -122.756H1373.27L1512.88 147.221L1652.5 -122.756H1880.35L1621.88 292.551L1897.99 725.82H1646.27V725.82Z" stroke="white" stroke-opacity="0.8"/>
</g>
</svg>
