<?xml version="1.0" encoding="utf-8"?>
<svg viewBox="447.821 -214.701 1691.22 1128.86" width="1635.055px" height="1286.682px" fill="none" xmlns="http://www.w3.org/2000/svg">
  <path d="M 1912.044 564.043 L 1826.293 413.442 L 1743.468 564.043 L 1608.549 564.043 L 1763.37 333.884 L 1617.622 106.369 L 1758.101 106.369 L 1836.828 251.978 L 1915.556 106.369 L 2044.036 106.369 L 1898.288 330.361 L 2053.987 564.043 L 1912.044 564.043 L 1912.044 564.043 Z" stroke="white" stroke-width="2" style="opacity: 0.5;"/>
  <path d="M 1891.431 604.705 L 1830.263 497.553 L 1771.437 604.705 L 1534.085 604.705 L 1717.294 332.273 L 1544.913 63.658 L 1786.071 63.658 L 1840.214 163.765 L 1894.357 63.658 L 2124.099 63.658 L 1951.427 329.045 L 2134.929 604.705 L 1891.431 604.705 Z" stroke="white" stroke-width="2" style="opacity: 0.5;"/>
  <path d="M 1867.406 657.076 L 1830.823 593.078 L 1795.703 657.076 L 1455.918 657.076 L 1667.515 342.37 L 1469.088 32.655 L 1810.629 32.655 L 1840.188 87.259 L 1869.747 32.655 L 2200.752 32.655 L 2001.154 339.435 L 2212.459 657.076 L 1867.406 657.076 Z" stroke="white" stroke-width="2" style="opacity: 0.5;"/>
  <path d="M 1845.173 696.992 L 1833.466 676.442 L 1822.052 696.992 L 1379.542 696.992 L 1619.528 340.305 L 1394.76 -10.216 L 1837.272 -10.216 L 1841.953 -1.409 L 1846.636 -10.216 L 2279.197 -10.216 L 2052.673 337.663 L 2291.781 696.992 L 1845.173 696.992 Z" stroke="white" stroke-width="2" style="opacity: 0.5;"/>
  <path d="M 1301.841 740.156 L 1570.216 341.196 L 1318.816 -50.425 L 2356.023 -50.425 L 2102.575 339.141 L 2369.482 740.156 L 1301.841 740.156 Z" stroke="white" stroke-width="2" style="opacity: 0.5;"/>
  <path d="M 1231.213 782.746 L 1527.976 341.512 L 1250.528 -91.21 L 2440.218 -91.21 L 2159.549 339.75 L 2454.556 782.746 L 1231.213 782.746 Z" stroke="white" stroke-width="2" style="opacity: 0.5;"/>
  <path d="M 1079.835 868.765 L 1433.083 343.571 L 1102.955 -171.35 L 2598.184 -171.35 L 2263.671 342.103 L 2614.279 868.765 L 1079.835 868.765 Z" stroke="white" stroke-width="2" style="opacity: 0.5;"/>
  <path d="M 1158.635 825.391 L 1483.494 342.176 L 1179.707 -131.938 L 2522.16 -131.938 L 2214.575 340.414 L 2537.387 825.391 L 1158.635 825.391 Z" stroke="white" stroke-width="2" style="opacity: 0.5;"/>
  <path d="M 1006.062 911.473 L 1387.992 344.005 L 1031.524 -212.015 L 2679.234 -212.015 L 2317.793 342.83 L 2696.208 911.473 L 1006.062 911.473 Z" stroke="white" stroke-width="2" style="opacity: 0.5;"/>
</svg>