<?xml version="1.0" encoding="utf-8"?>
<svg viewBox="447.821 -214.701 1690.146 1132.084" width="1635.055px" height="1286.682px" fill="none" xmlns="http://www.w3.org/2000/svg">
  <path d="M 817.925 565.655 L 732.174 415.054 L 649.349 565.655 L 514.43 565.655 L 669.251 335.496 L 523.503 107.981 L 663.982 107.981 L 742.709 253.59 L 821.437 107.981 L 949.917 107.981 L 804.169 331.973 L 959.868 565.655 L 817.925 565.655 L 817.925 565.655 Z" stroke="white" stroke-width="2" style="opacity: 0.5;"/>
  <path d="M 797.312 606.317 L 736.144 499.165 L 677.318 606.317 L 439.966 606.317 L 623.175 333.885 L 450.794 65.27 L 691.952 65.27 L 746.095 165.377 L 800.238 65.27 L 1029.98 65.27 L 857.308 330.657 L 1040.81 606.317 L 797.312 606.317 Z" stroke="white" stroke-width="2" style="opacity: 0.5;"/>
  <path d="M 773.287 658.688 L 736.704 594.69 L 701.584 658.688 L 361.799 658.688 L 573.396 343.982 L 374.969 34.267 L 716.51 34.267 L 746.069 88.871 L 775.628 34.267 L 1106.633 34.267 L 907.035 341.047 L 1118.34 658.688 L 773.287 658.688 Z" stroke="white" stroke-width="2" style="opacity: 0.5;"/>
  <path d="M 751.054 698.604 L 739.347 678.054 L 727.933 698.604 L 285.423 698.604 L 525.409 341.917 L 300.641 -8.604 L 743.153 -8.604 L 747.834 0.203 L 752.517 -8.604 L 1185.078 -8.604 L 958.554 339.275 L 1197.662 698.604 L 751.054 698.604 Z" stroke="white" stroke-width="2" style="opacity: 0.5;"/>
  <path d="M 207.722 741.768 L 476.097 342.808 L 224.697 -48.813 L 1261.904 -48.813 L 1008.456 340.753 L 1275.363 741.768 L 207.722 741.768 Z" stroke="white" stroke-width="2" style="opacity: 0.5;"/>
  <path d="M 137.094 784.358 L 433.857 343.124 L 156.409 -89.598 L 1346.099 -89.598 L 1065.43 341.362 L 1360.437 784.358 L 137.094 784.358 Z" stroke="white" stroke-width="2" style="opacity: 0.5;"/>
  <path d="M -14.284 870.377 L 338.964 345.183 L 8.836 -169.738 L 1504.065 -169.738 L 1169.552 343.715 L 1520.16 870.377 L -14.284 870.377 Z" stroke="white" stroke-width="2" style="opacity: 0.5;"/>
  <path d="M 64.516 827.003 L 389.375 343.788 L 85.588 -130.326 L 1428.041 -130.326 L 1120.456 342.026 L 1443.268 827.003 L 64.516 827.003 Z" stroke="white" stroke-width="2" style="opacity: 0.5;"/>
  <path d="M -88.057 913.085 L 293.873 345.617 L -62.595 -210.403 L 1585.115 -210.403 L 1223.674 344.442 L 1602.089 913.085 L -88.057 913.085 Z" stroke="white" stroke-width="2" style="opacity: 0.5;"/>
</svg>